<svg width="400px" height="300px" viewBox="0 0 400 300" version="1.1" xmlns="http://www.w3.org/2000/svg" xmlns:xlink="http://www.w3.org/1999/xlink">
    <title>placeholder_dog</title>
    <g id="Page-1" stroke="none" stroke-width="1" fill="none" fill-rule="evenodd">
        <g id="placeholder_dog" transform="translate(0.000000, 0.000000)">
            <rect id="Mask" fill="#E4DED5" x="0" y="0" width="400" height="299.051942"/>
            <path d="M194.644463,46.2409612 C218.819791,45.829572 243.899226,55.3057092 251.886959,64.4697581 C265.691401,68.1481449 286.874987,71.8804378 297.675982,65.3577913 C296.489087,70.3620807 294.764089,71.732106 292.82655,72.8132072 L292.518904,72.9819941 C292.415798,73.0377812 292.312151,73.0932557 292.20801,73.1489053 L291.894153,73.3168672 L291.894153,73.3168672 L291.577618,73.4888062 C290.836133,73.8969132 290.075103,74.3613984 289.310806,75.0495532 C296.969375,76.6312737 298.631292,77.0625231 305.501327,77.9874394 C301.315814,83.5596351 298.992641,81.4189927 293.794763,81.7069652 C301.574757,88.8325097 308.155127,107.414534 322.745176,117.948934 C316.205768,118.832712 316.985523,117.409873 312.719546,114.330128 C320.369337,141.688928 273.496265,168.876079 279.89084,189.631373 C275.189521,186.110582 274.992137,183.887823 274.901997,181.461527 L274.889673,181.121502 C274.850049,180.039616 274.791437,178.904355 274.334538,177.586181 C270.075876,175.567537 267.695649,171.572806 266.42873,169.450605 C267.23324,175.288048 266.446149,178.243416 265.622686,180.990483 L265.489078,181.43455 C265.444599,181.582245 265.40026,181.729754 265.356306,181.877498 L265.225845,182.321863 C265.054091,182.916419 264.892427,183.521506 264.756573,184.164152 C268.307164,184.496101 271.193574,191.764922 275.923307,194.819133 C276.066676,198.123013 282.385178,201.011249 285.899196,206.286961 C283.578949,205.6869 281.555683,205.684063 279.542657,205.010236 C279.924754,205.391061 280.316645,205.771007 280.712595,206.151089 L281.189318,206.607318 C285.012822,210.258716 288.99917,213.96013 288.076072,218.610195 C289.996932,221.095553 290.099339,225.036378 287.408965,227.472086 C288.234188,254.385262 316.279672,269.086788 312.81995,299.051381 L312.523781,299.050782 C311.454441,293.578911 309.755814,289.647991 306.058713,288.316547 C308.08185,291.990729 309.832932,295.552121 311.347089,299.051752 L84.8794918,299.0517 C86.3522133,295.333899 88.0980821,291.60933 90.1675441,287.851252 C86.3681542,289.221426 84.6781658,293.336279 83.6166349,299.050906 L83.3834484,299.05064 C79.0515039,284.133864 87.3277695,271.491858 96.1271901,258.272344 L97.099044,256.812113 C104.070592,246.328321 111.091441,235.418366 112.196718,222.674437 C108.567127,211.437837 114.980721,210.395178 123.408804,204.901005 C121.558166,204.278247 121.716165,203.720743 119.000921,204.901005 C121.334334,197.839297 127.690872,199.440877 127.4173,196.883171 C127.908853,197.247747 127.151042,195.287265 123.65458,194.440371 C125.671995,192.987741 126.16501,191.641506 129.529807,188.875268 C131.444814,182.660454 124.549908,169.942854 124.479687,168.281693 C120.716967,176.554871 113.375859,182.521433 106.896432,190.234271 C108.433998,182.258995 106.1474,183.640695 108.393035,179.34948 C103.139565,184.896142 106.407806,182.188066 99.6036027,186.650929 C109.12305,173.687914 73.8526719,141.287469 84.6902412,108.431658 C79.9019901,109.028882 77.1984496,107.61881 74.2944843,105.927858 C84.0787261,103.046716 83.0253987,101.333067 91.4315371,95.1338572 C97.2497084,90.8497353 104.342113,84.7044319 107.234375,81.8005917 C101.796572,79.8344351 98.5532011,77.444122 94.0853371,72.0506678 C103.297564,75.3758274 110.780578,77.0667788 121.334334,74.2650766 C112.995491,71.2562611 108.461794,71.832206 104.583501,61.8170071 C114.964628,69.3099647 126.988654,68.2829103 139.139957,64.5392687 C148.14737,54.3197937 170.46182,46.6509318 194.644463,46.2409612 Z" id="Combined-Shape" fill="#F1EEEA"/>
        </g>
    </g>
</svg>